<mxfile host="65bd71144e">
    <diagram id="5hQ6nxSfdN6vWeaFrlzV" name="Page-1">
        <mxGraphModel dx="1107" dy="1162" grid="1" gridSize="10" guides="1" tooltips="1" connect="1" arrows="1" fold="1" page="0" pageScale="1" pageWidth="1169" pageHeight="827" math="0" shadow="0">
            <root>
                <mxCell id="0"/>
                <mxCell id="1" parent="0"/>
                <mxCell id="2" value="setTrack(string&amp;amp; bookingType,&lt;br&gt;string&amp;amp; raceFormat" style="strokeWidth=2;html=1;shape=mxgraph.flowchart.terminator;whiteSpace=wrap;fillColor=#d80073;strokeColor=#A50040;fontColor=#ffffff;" vertex="1" parent="1">
                    <mxGeometry x="450" y="-160" width="140" height="84" as="geometry"/>
                </mxCell>
                <mxCell id="4" value="bookingType == &quot;Group&quot;&lt;br&gt;&amp;amp;&amp;amp;&lt;br&gt;raceFormat == &quot;Circuit Race&quot;" style="rhombus;whiteSpace=wrap;html=1;strokeWidth=2;fillColor=#1ba1e2;fontColor=#ffffff;strokeColor=#006EAF;" vertex="1" parent="1">
                    <mxGeometry x="420" y="-20" width="200" height="200" as="geometry"/>
                </mxCell>
                <mxCell id="5" value="raceFormat == &quot;Elimination Race&quot;" style="rhombus;whiteSpace=wrap;html=1;strokeWidth=2;fillColor=#1ba1e2;fontColor=#ffffff;strokeColor=#006EAF;" vertex="1" parent="1">
                    <mxGeometry x="420" y="760" width="200" height="200" as="geometry"/>
                </mxCell>
                <mxCell id="6" value="raceFormat == &quot;Sprint Race&quot;" style="rhombus;whiteSpace=wrap;html=1;strokeWidth=2;fillColor=#1ba1e2;fontColor=#ffffff;strokeColor=#006EAF;" vertex="1" parent="1">
                    <mxGeometry x="420" y="1020" width="200" height="200" as="geometry"/>
                </mxCell>
                <mxCell id="8" value="raceFormat == &quot;Drag Race&quot;" style="rhombus;whiteSpace=wrap;html=1;strokeWidth=2;fillColor=#1ba1e2;fontColor=#ffffff;strokeColor=#006EAF;" vertex="1" parent="1">
                    <mxGeometry x="420" y="1280" width="200" height="200" as="geometry"/>
                </mxCell>
                <mxCell id="10" value="" style="edgeStyle=none;html=1;strokeWidth=2;shadow=1;textShadow=1;spacing=2;entryX=0.5;entryY=0;entryDx=0;entryDy=0;" edge="1" parent="1">
                    <mxGeometry relative="1" as="geometry">
                        <mxPoint x="519.71" y="-76" as="sourcePoint"/>
                        <mxPoint x="520" y="-20" as="targetPoint"/>
                    </mxGeometry>
                </mxCell>
                <mxCell id="41" value="" style="edgeStyle=none;html=1;strokeWidth=2;" edge="1" parent="1" source="13" target="14">
                    <mxGeometry relative="1" as="geometry"/>
                </mxCell>
                <mxCell id="13" value="Display:&lt;br&gt;&quot;Available Track: 1 - Section 9 Circuit&quot;,&lt;br&gt;&quot;2 - Blackrock Circuit&quot;" style="shape=parallelogram;perimeter=parallelogramPerimeter;whiteSpace=wrap;html=1;fixedSize=1;strokeWidth=2;fillColor=#008a00;fontColor=#ffffff;strokeColor=#005700;" vertex="1" parent="1">
                    <mxGeometry x="680" y="50" width="290" height="60" as="geometry"/>
                </mxCell>
                <mxCell id="43" value="" style="edgeStyle=none;html=1;strokeWidth=2;" edge="1" parent="1" source="14" target="15">
                    <mxGeometry relative="1" as="geometry"/>
                </mxCell>
                <mxCell id="14" value="Prompt:&lt;br&gt;&quot;Please choose your track (1 - 2): &quot;" style="shape=parallelogram;perimeter=parallelogramPerimeter;whiteSpace=wrap;html=1;fixedSize=1;strokeWidth=2;fillColor=#008a00;fontColor=#ffffff;strokeColor=#005700;" vertex="1" parent="1">
                    <mxGeometry x="1000" y="52" width="290" height="60" as="geometry"/>
                </mxCell>
                <mxCell id="59" value="" style="edgeStyle=none;html=1;" edge="1" parent="1" source="15" target="16">
                    <mxGeometry relative="1" as="geometry"/>
                </mxCell>
                <mxCell id="15" value="trackID =&lt;br&gt;getValidIntegerInput(&quot;track&quot;, 1, 2)" style="whiteSpace=wrap;html=1;strokeWidth=2;fillColor=#fa6800;fontColor=#FFFFFF;strokeColor=#C73500;" vertex="1" parent="1">
                    <mxGeometry x="1320" y="52" width="200" height="60" as="geometry"/>
                </mxCell>
                <mxCell id="16" value="trackID" style="whiteSpace=wrap;html=1;strokeWidth=2;fillColor=#1ba1e2;fontColor=#ffffff;strokeColor=#006EAF;" vertex="1" parent="1">
                    <mxGeometry x="1360" y="182" width="120" height="60" as="geometry"/>
                </mxCell>
                <mxCell id="17" value="= 1" style="rhombus;whiteSpace=wrap;html=1;strokeWidth=2;fillColor=#1ba1e2;fontColor=#ffffff;strokeColor=#006EAF;" vertex="1" parent="1">
                    <mxGeometry x="1630" y="172" width="80" height="80" as="geometry"/>
                </mxCell>
                <mxCell id="18" value="return&lt;br&gt;&quot;Section 9 Circuit&quot;" style="strokeWidth=2;html=1;shape=mxgraph.flowchart.terminator;whiteSpace=wrap;fillColor=#d80073;fontColor=#ffffff;strokeColor=#A50040;" vertex="1" parent="1">
                    <mxGeometry x="1600" y="40" width="140" height="84" as="geometry"/>
                </mxCell>
                <mxCell id="19" value="return&lt;br&gt;&quot;Blackrock Circuit&quot;" style="strokeWidth=2;html=1;shape=mxgraph.flowchart.terminator;whiteSpace=wrap;fillColor=#d80073;fontColor=#ffffff;strokeColor=#A50040;" vertex="1" parent="1">
                    <mxGeometry x="1760" y="40" width="140" height="84" as="geometry"/>
                </mxCell>
                <mxCell id="57" value="" style="edgeStyle=none;html=1;strokeWidth=2;" edge="1" parent="1" source="20" target="21">
                    <mxGeometry relative="1" as="geometry"/>
                </mxCell>
                <mxCell id="20" value="Display:&lt;br&gt;&quot;Available Track: Blackrock Circuit&quot;,&lt;br&gt;&quot;Defaulting to said Track&quot;" style="shape=parallelogram;perimeter=parallelogramPerimeter;whiteSpace=wrap;html=1;fixedSize=1;strokeWidth=2;fillColor=#008a00;fontColor=#ffffff;strokeColor=#005700;" vertex="1" parent="1">
                    <mxGeometry x="680" y="830" width="290" height="60" as="geometry"/>
                </mxCell>
                <mxCell id="21" value="return&lt;br&gt;&quot;Blackrock Circuit&quot;" style="strokeWidth=2;html=1;shape=mxgraph.flowchart.terminator;whiteSpace=wrap;fillColor=#d80073;fontColor=#ffffff;strokeColor=#A50040;" vertex="1" parent="1">
                    <mxGeometry x="1030" y="818" width="140" height="84" as="geometry"/>
                </mxCell>
                <mxCell id="56" value="" style="edgeStyle=none;html=1;strokeWidth=2;" edge="1" parent="1" source="22" target="23">
                    <mxGeometry relative="1" as="geometry"/>
                </mxCell>
                <mxCell id="22" value="Display:&lt;br&gt;&quot;Available Track: Rushline Dash&quot;,&lt;br&gt;&quot;Defaulting to said Track&quot;" style="shape=parallelogram;perimeter=parallelogramPerimeter;whiteSpace=wrap;html=1;fixedSize=1;strokeWidth=2;fillColor=#008a00;fontColor=#ffffff;strokeColor=#005700;" vertex="1" parent="1">
                    <mxGeometry x="680" y="1090" width="290" height="60" as="geometry"/>
                </mxCell>
                <mxCell id="23" value="return&lt;br&gt;&quot;Rushline Dash&quot;" style="strokeWidth=2;html=1;shape=mxgraph.flowchart.terminator;whiteSpace=wrap;fillColor=#d80073;fontColor=#ffffff;strokeColor=#A50040;" vertex="1" parent="1">
                    <mxGeometry x="1030" y="1078" width="140" height="84" as="geometry"/>
                </mxCell>
                <mxCell id="25" value="raceFormat == &quot;Time Trial&quot;" style="rhombus;whiteSpace=wrap;html=1;strokeWidth=2;fillColor=#1ba1e2;fontColor=#ffffff;strokeColor=#006EAF;" vertex="1" parent="1">
                    <mxGeometry x="420" y="242" width="200" height="200" as="geometry"/>
                </mxCell>
                <mxCell id="45" value="" style="edgeStyle=none;html=1;strokeWidth=2;" edge="1" parent="1" source="26" target="29">
                    <mxGeometry relative="1" as="geometry"/>
                </mxCell>
                <mxCell id="26" value="Display:&lt;br&gt;&quot;Available Track: 1 - Section 9 Circuit&quot;,&lt;br&gt;&quot;2 - Blackrock Circuit&quot;, &quot;3 - Rushline Dash&quot;,&lt;br&gt;&quot;4 - Chrono Pass&quot;" style="shape=parallelogram;perimeter=parallelogramPerimeter;whiteSpace=wrap;html=1;fixedSize=1;strokeWidth=2;fillColor=#008a00;fontColor=#ffffff;strokeColor=#005700;" vertex="1" parent="1">
                    <mxGeometry x="680" y="312" width="290" height="60" as="geometry"/>
                </mxCell>
                <mxCell id="55" value="" style="edgeStyle=none;html=1;strokeWidth=2;" edge="1" parent="1" source="27" target="28">
                    <mxGeometry relative="1" as="geometry"/>
                </mxCell>
                <mxCell id="27" value="Display:&lt;br&gt;&quot;Available Track: Torque Strip&quot;,&lt;br&gt;&quot;Defaulting to said Track&quot;" style="shape=parallelogram;perimeter=parallelogramPerimeter;whiteSpace=wrap;html=1;fixedSize=1;strokeWidth=2;fillColor=#008a00;fontColor=#ffffff;strokeColor=#005700;" vertex="1" parent="1">
                    <mxGeometry x="680" y="1350" width="290" height="60" as="geometry"/>
                </mxCell>
                <mxCell id="28" value="return&lt;br&gt;&quot;Torque Strip&quot;" style="strokeWidth=2;html=1;shape=mxgraph.flowchart.terminator;whiteSpace=wrap;fillColor=#d80073;fontColor=#ffffff;strokeColor=#A50040;" vertex="1" parent="1">
                    <mxGeometry x="1030" y="1338" width="140" height="84" as="geometry"/>
                </mxCell>
                <mxCell id="44" value="" style="edgeStyle=none;html=1;strokeWidth=2;" edge="1" parent="1" source="29" target="30">
                    <mxGeometry relative="1" as="geometry"/>
                </mxCell>
                <mxCell id="29" value="Prompt:&lt;br&gt;&quot;Please choose your track (1 - 4): &quot;" style="shape=parallelogram;perimeter=parallelogramPerimeter;whiteSpace=wrap;html=1;fixedSize=1;strokeWidth=2;fillColor=#008a00;fontColor=#ffffff;strokeColor=#005700;" vertex="1" parent="1">
                    <mxGeometry x="1000" y="312" width="290" height="60" as="geometry"/>
                </mxCell>
                <mxCell id="58" value="" style="edgeStyle=none;html=1;" edge="1" parent="1" source="30" target="16">
                    <mxGeometry relative="1" as="geometry"/>
                </mxCell>
                <mxCell id="30" value="trackID =&lt;br&gt;getValidIntegerInput(&quot;track&quot;, 1, 4)" style="whiteSpace=wrap;html=1;strokeWidth=2;fillColor=#fa6800;fontColor=#FFFFFF;strokeColor=#C73500;" vertex="1" parent="1">
                    <mxGeometry x="1320" y="312" width="200" height="60" as="geometry"/>
                </mxCell>
                <mxCell id="40" value="True" style="edgeStyle=none;orthogonalLoop=1;jettySize=auto;html=1;exitX=1;exitY=0.5;exitDx=0;exitDy=0;entryX=0;entryY=0.5;entryDx=0;entryDy=0;strokeWidth=2;" edge="1" parent="1" source="4" target="13">
                    <mxGeometry width="100" relative="1" as="geometry">
                        <mxPoint x="600" y="-8" as="sourcePoint"/>
                        <mxPoint x="700" y="-8" as="targetPoint"/>
                        <Array as="points"/>
                    </mxGeometry>
                </mxCell>
                <mxCell id="46" value="True" style="edgeStyle=none;orthogonalLoop=1;jettySize=auto;html=1;exitX=1;exitY=0.5;exitDx=0;exitDy=0;entryX=0;entryY=0.5;entryDx=0;entryDy=0;strokeWidth=2;" edge="1" parent="1">
                    <mxGeometry width="100" relative="1" as="geometry">
                        <mxPoint x="620" y="341.69000000000005" as="sourcePoint"/>
                        <mxPoint x="690" y="341.69000000000005" as="targetPoint"/>
                        <Array as="points"/>
                    </mxGeometry>
                </mxCell>
                <mxCell id="47" value="False" style="edgeStyle=none;orthogonalLoop=1;jettySize=auto;html=1;exitX=0.5;exitY=1;exitDx=0;exitDy=0;entryX=0.5;entryY=0;entryDx=0;entryDy=0;strokeWidth=2;" edge="1" parent="1" target="25">
                    <mxGeometry width="100" relative="1" as="geometry">
                        <mxPoint x="519.69" y="180" as="sourcePoint"/>
                        <mxPoint x="519.69" y="238" as="targetPoint"/>
                        <Array as="points"/>
                    </mxGeometry>
                </mxCell>
                <mxCell id="49" value="False" style="edgeStyle=none;orthogonalLoop=1;jettySize=auto;html=1;exitX=0.5;exitY=1;exitDx=0;exitDy=0;entryX=0.5;entryY=0;entryDx=0;entryDy=0;strokeWidth=2;" edge="1" parent="1" source="25">
                    <mxGeometry width="100" relative="1" as="geometry">
                        <mxPoint x="510" y="492" as="sourcePoint"/>
                        <mxPoint x="520" y="502" as="targetPoint"/>
                        <Array as="points"/>
                    </mxGeometry>
                </mxCell>
                <mxCell id="50" value="False" style="edgeStyle=none;orthogonalLoop=1;jettySize=auto;html=1;exitX=0.5;exitY=1;exitDx=0;exitDy=0;entryX=0.5;entryY=0;entryDx=0;entryDy=0;strokeWidth=2;" edge="1" parent="1" source="5" target="6">
                    <mxGeometry width="100" relative="1" as="geometry">
                        <mxPoint x="570" y="990" as="sourcePoint"/>
                        <mxPoint x="670" y="990" as="targetPoint"/>
                        <Array as="points"/>
                    </mxGeometry>
                </mxCell>
                <mxCell id="51" value="False" style="edgeStyle=none;orthogonalLoop=1;jettySize=auto;html=1;exitX=0.5;exitY=1;exitDx=0;exitDy=0;entryX=0.5;entryY=0;entryDx=0;entryDy=0;strokeWidth=2;" edge="1" parent="1" source="6" target="8">
                    <mxGeometry width="100" relative="1" as="geometry">
                        <mxPoint x="470" y="1250" as="sourcePoint"/>
                        <mxPoint x="540" y="1270" as="targetPoint"/>
                        <Array as="points"/>
                    </mxGeometry>
                </mxCell>
                <mxCell id="52" value="True" style="edgeStyle=none;orthogonalLoop=1;jettySize=auto;html=1;exitX=1;exitY=0.5;exitDx=0;exitDy=0;entryX=0;entryY=0.5;entryDx=0;entryDy=0;strokeWidth=2;" edge="1" parent="1" source="5" target="20">
                    <mxGeometry width="100" relative="1" as="geometry">
                        <mxPoint x="610" y="859.7700000000001" as="sourcePoint"/>
                        <mxPoint x="680" y="859.7700000000001" as="targetPoint"/>
                        <Array as="points"/>
                    </mxGeometry>
                </mxCell>
                <mxCell id="53" value="True" style="edgeStyle=none;orthogonalLoop=1;jettySize=auto;html=1;exitX=1;exitY=0.5;exitDx=0;exitDy=0;entryX=0;entryY=0.5;entryDx=0;entryDy=0;strokeWidth=2;" edge="1" parent="1">
                    <mxGeometry width="100" relative="1" as="geometry">
                        <mxPoint x="620" y="1119.82" as="sourcePoint"/>
                        <mxPoint x="690" y="1119.82" as="targetPoint"/>
                        <Array as="points"/>
                    </mxGeometry>
                </mxCell>
                <mxCell id="54" value="True" style="edgeStyle=none;orthogonalLoop=1;jettySize=auto;html=1;exitX=1;exitY=0.5;exitDx=0;exitDy=0;entryX=0;entryY=0.5;entryDx=0;entryDy=0;strokeWidth=2;" edge="1" parent="1">
                    <mxGeometry width="100" relative="1" as="geometry">
                        <mxPoint x="620" y="1379.69" as="sourcePoint"/>
                        <mxPoint x="690" y="1379.69" as="targetPoint"/>
                        <Array as="points"/>
                    </mxGeometry>
                </mxCell>
                <mxCell id="60" value="" style="edgeStyle=none;html=1;strokeWidth=2;entryX=0;entryY=0.5;entryDx=0;entryDy=0;" edge="1" parent="1" target="17">
                    <mxGeometry relative="1" as="geometry">
                        <mxPoint x="1480" y="211.70999999999998" as="sourcePoint"/>
                        <mxPoint x="1520" y="211.70999999999998" as="targetPoint"/>
                    </mxGeometry>
                </mxCell>
                <mxCell id="61" value="= 2" style="rhombus;whiteSpace=wrap;html=1;strokeWidth=2;fillColor=#1ba1e2;fontColor=#ffffff;strokeColor=#006EAF;" vertex="1" parent="1">
                    <mxGeometry x="1790" y="172" width="80" height="80" as="geometry"/>
                </mxCell>
                <mxCell id="63" value="= 3" style="rhombus;whiteSpace=wrap;html=1;strokeWidth=2;fillColor=#1ba1e2;fontColor=#ffffff;strokeColor=#006EAF;" vertex="1" parent="1">
                    <mxGeometry x="1950" y="172" width="80" height="80" as="geometry"/>
                </mxCell>
                <mxCell id="65" value="return&lt;br&gt;&quot;Rushline Dash&quot;" style="strokeWidth=2;html=1;shape=mxgraph.flowchart.terminator;whiteSpace=wrap;fillColor=#d80073;fontColor=#ffffff;strokeColor=#A50040;" vertex="1" parent="1">
                    <mxGeometry x="1920" y="40" width="140" height="84" as="geometry"/>
                </mxCell>
                <mxCell id="68" value="return&lt;br&gt;&quot;Chrono Pass&quot;" style="strokeWidth=2;html=1;shape=mxgraph.flowchart.terminator;whiteSpace=wrap;fillColor=#d80073;fontColor=#ffffff;strokeColor=#A50040;" vertex="1" parent="1">
                    <mxGeometry x="2110" y="170" width="140" height="84" as="geometry"/>
                </mxCell>
                <mxCell id="69" value="False" style="edgeStyle=none;orthogonalLoop=1;jettySize=auto;html=1;entryX=0;entryY=0.5;entryDx=0;entryDy=0;strokeWidth=2;" edge="1" parent="1" target="61">
                    <mxGeometry width="100" relative="1" as="geometry">
                        <mxPoint x="1710" y="212" as="sourcePoint"/>
                        <mxPoint x="1810" y="212" as="targetPoint"/>
                        <Array as="points"/>
                    </mxGeometry>
                </mxCell>
                <mxCell id="70" value="True" style="edgeStyle=none;orthogonalLoop=1;jettySize=auto;html=1;exitX=0.5;exitY=0;exitDx=0;exitDy=0;entryX=0.5;entryY=1;entryDx=0;entryDy=0;entryPerimeter=0;strokeWidth=2;" edge="1" parent="1" source="17" target="18">
                    <mxGeometry width="100" relative="1" as="geometry">
                        <mxPoint x="1660" y="152" as="sourcePoint"/>
                        <mxPoint x="1760" y="152" as="targetPoint"/>
                        <Array as="points"/>
                    </mxGeometry>
                </mxCell>
                <mxCell id="72" value="True" style="edgeStyle=none;orthogonalLoop=1;jettySize=auto;html=1;exitX=0.5;exitY=0;exitDx=0;exitDy=0;entryX=0.5;entryY=1;entryDx=0;entryDy=0;entryPerimeter=0;strokeWidth=2;" edge="1" parent="1" source="61" target="19">
                    <mxGeometry width="100" relative="1" as="geometry">
                        <mxPoint x="1760" y="152" as="sourcePoint"/>
                        <mxPoint x="1860" y="152" as="targetPoint"/>
                        <Array as="points"/>
                    </mxGeometry>
                </mxCell>
                <mxCell id="73" value="True" style="edgeStyle=none;orthogonalLoop=1;jettySize=auto;html=1;entryX=0.5;entryY=1;entryDx=0;entryDy=0;entryPerimeter=0;exitX=0.5;exitY=0;exitDx=0;exitDy=0;strokeWidth=2;" edge="1" parent="1" source="63" target="65">
                    <mxGeometry width="100" relative="1" as="geometry">
                        <mxPoint x="1920" y="162" as="sourcePoint"/>
                        <mxPoint x="2020" y="162" as="targetPoint"/>
                        <Array as="points"/>
                    </mxGeometry>
                </mxCell>
                <mxCell id="74" value="False" style="edgeStyle=none;orthogonalLoop=1;jettySize=auto;html=1;exitX=1;exitY=0.5;exitDx=0;exitDy=0;entryX=0;entryY=0.5;entryDx=0;entryDy=0;strokeWidth=2;" edge="1" parent="1" source="61" target="63">
                    <mxGeometry width="100" relative="1" as="geometry">
                        <mxPoint x="1860" y="252" as="sourcePoint"/>
                        <mxPoint x="1960" y="252" as="targetPoint"/>
                        <Array as="points"/>
                    </mxGeometry>
                </mxCell>
                <mxCell id="75" value="False" style="edgeStyle=none;orthogonalLoop=1;jettySize=auto;html=1;exitX=1;exitY=0.5;exitDx=0;exitDy=0;entryX=0;entryY=0.5;entryDx=0;entryDy=0;entryPerimeter=0;strokeWidth=2;" edge="1" parent="1" source="63" target="68">
                    <mxGeometry width="100" relative="1" as="geometry">
                        <mxPoint x="2000" y="272" as="sourcePoint"/>
                        <mxPoint x="2100" y="272" as="targetPoint"/>
                        <Array as="points"/>
                    </mxGeometry>
                </mxCell>
                <mxCell id="76" value="bookingType == &quot;Solo&quot;&lt;br&gt;&amp;amp;&amp;amp;&lt;br&gt;raceFormat == &quot;Circuit Race&quot;" style="rhombus;whiteSpace=wrap;html=1;strokeWidth=2;fillColor=#1ba1e2;fontColor=#ffffff;strokeColor=#006EAF;" vertex="1" parent="1">
                    <mxGeometry x="420" y="502" width="200" height="200" as="geometry"/>
                </mxCell>
                <mxCell id="77" value="" style="edgeStyle=none;html=1;strokeWidth=2;" edge="1" parent="1" source="78" target="79">
                    <mxGeometry relative="1" as="geometry"/>
                </mxCell>
                <mxCell id="78" value="Display:&lt;br&gt;&quot;Available Track: Section 9 Circuit&quot;,&lt;br&gt;&quot;Defaulting to said Track&quot;" style="shape=parallelogram;perimeter=parallelogramPerimeter;whiteSpace=wrap;html=1;fixedSize=1;strokeWidth=2;fillColor=#008a00;fontColor=#ffffff;strokeColor=#005700;" vertex="1" parent="1">
                    <mxGeometry x="680" y="572" width="290" height="60" as="geometry"/>
                </mxCell>
                <mxCell id="79" value="return&lt;br&gt;&quot;Section 9 Circuit&quot;" style="strokeWidth=2;html=1;shape=mxgraph.flowchart.terminator;whiteSpace=wrap;fillColor=#d80073;fontColor=#ffffff;strokeColor=#A50040;" vertex="1" parent="1">
                    <mxGeometry x="1030" y="560" width="140" height="84" as="geometry"/>
                </mxCell>
                <mxCell id="80" value="True" style="edgeStyle=none;orthogonalLoop=1;jettySize=auto;html=1;exitX=1;exitY=0.5;exitDx=0;exitDy=0;entryX=0;entryY=0.5;entryDx=0;entryDy=0;strokeWidth=2;" edge="1" parent="1" source="76" target="78">
                    <mxGeometry width="100" relative="1" as="geometry">
                        <mxPoint x="580" y="652" as="sourcePoint"/>
                        <mxPoint x="680" y="652" as="targetPoint"/>
                        <Array as="points"/>
                    </mxGeometry>
                </mxCell>
                <mxCell id="81" value="False" style="edgeStyle=none;orthogonalLoop=1;jettySize=auto;html=1;exitX=0.5;exitY=1;exitDx=0;exitDy=0;entryX=0.5;entryY=0;entryDx=0;entryDy=0;strokeWidth=2;" edge="1" parent="1" source="76">
                    <mxGeometry width="100" relative="1" as="geometry">
                        <mxPoint x="530" y="732" as="sourcePoint"/>
                        <mxPoint x="520" y="760" as="targetPoint"/>
                        <Array as="points"/>
                    </mxGeometry>
                </mxCell>
            </root>
        </mxGraphModel>
    </diagram>
</mxfile>